<?xml version="1.0" standalone="no"?>
<!DOCTYPE svg PUBLIC "-//W3C//DTD SVG 1.1//EN" "http://www.w3.org/Graphics/SVG/1.1/DTD/svg11.dtd"><svg t="1732094679140"
  class="icon" viewBox="0 0 1024 1024" version="1.1" xmlns="http://www.w3.org/2000/svg" p-id="7516"
  xmlns:xlink="http://www.w3.org/1999/xlink" width="200" height="200">
  <path
    d="M992.98176 620.458667h-122.026667v-97.28a30.165333 30.165333 0 0 0-31.061333-30.421334H546.13376V403.541333h122.026667a30.165333 30.165333 0 0 0 31.061333-30.421333V73.088A30.165333 30.165333 0 0 0 668.160427 42.666667H362.027093a30.165333 30.165333 0 0 0-31.018666 30.421333v300.032c0 17.237333 13.44 30.421333 31.018666 30.421333h122.026667v89.173334h-299.946667a30.165333 30.165333 0 0 0-31.018666 30.421333v97.322667H31.06176a30.165333 30.165333 0 0 0-31.061333 30.421333v300.032c0 17.237333 13.44 30.421333 31.018666 30.421333h306.176a30.165333 30.165333 0 0 0 31.018667-30.421333v-300.032a30.165333 30.165333 0 0 0-31.018667-30.421333h-122.026666v-66.901334h593.706666v66.901334h-122.069333a30.165333 30.165333 0 0 0-31.018667 30.421333v300.032c0 17.237333 13.44 30.421333 31.018667 30.421333h306.176a30.165333 30.165333 0 0 0 31.018667-30.421333v-300.032a30.165333 30.165333 0 0 0-31.018667-30.421333zM393.088427 103.466667h244.053333v239.232h-244.053333V103.466667z m-86.912 817.066666H62.080427v-239.232h244.053333v239.232z m655.786666 0h-244.138666v-239.232h244.096v239.232z"
    fill="#3b82f6" p-id="7517"></path>
</svg>