<?xml version="1.0" standalone="no"?>
<!DOCTYPE svg PUBLIC "-//W3C//DTD SVG 1.1//EN" "http://www.w3.org/Graphics/SVG/1.1/DTD/svg11.dtd"><svg t="1717148136016"
  class="icon" viewBox="0 0 1122 1024" version="1.1" xmlns="http://www.w3.org/2000/svg" p-id="9545"
  xmlns:xlink="http://www.w3.org/1999/xlink" width="328.7109375" height="300">
  <path
    d="M42.004288 990.467289m16.766355 0l66.240364 0q16.766355 0 16.766355 16.766356l0 0q0 16.766355-16.766355 16.766355l-66.240364 0q-16.766355 0-16.766355-16.766355l0 0q0-16.766355 16.766355-16.766356Z"
    fill="#60a5fa" p-id="9546"></path>
  <path
    d="M1116.819015 491.734515c11.624477 18.829 3.388631 44.744659-16.309627 51.227256l-833.897817 275.363078c-33.886307 11.123549-70.63085 1.178654-95.765651-25.871458l-157.644993-168.871675c-13.952319-14.939441-4.994547-41.13503 14.394313-42.077954l25.149534-1.222853a69.42273 69.42273 0 0 1 37.93793 9.193502l102.277715 58.579112a80.487346 80.487346 0 0 0 70.100456 5.259744l167.192092-66.151965-206.559141-295.989525c-14.733177-25.650461-3.948491-60.022963 22.202898-69.481663 13.86392-4.979814 31.087003-5.215545 51.566119 5.554408 50.947326 26.770183 260.570968 199.516683 323.349036 251.568997a66.652893 66.652893 0 0 0 40.280506 15.617167l3.123433 0.0884 230.367955-91.198366a146.138383 146.138383 0 0 1 78.085838-8.589442c42.416817 7.057192 102.557645 29.466354 144.193604 96.988504z"
    fill="#60a5fa" p-id="9547"></path>
  <path
    d="M382.605873 1015.616822H177.505316v-33.444311h205.100557a190.205315 190.205315 0 0 0 115.93537-39.661713l135.795692-120.723652 22.217631 25.046401-137.018546 121.784441a223.752759 223.752759 0 0 1-136.930147 46.998834z"
    fill="#60a5fa" p-id="9548"></path>
  <path
    d="M0 157.040933m12.258003 0l94.100802 0q12.258003 0 12.258003 12.258004l0 3.889558q0 12.258003-12.258003 12.258004l-94.100802 0q-12.258003 0-12.258003-12.258004l0-3.889558q0-12.258003 12.258003-12.258004Z"
    fill="#60a5fa" p-id="9549"></path>
  <path
    d="M46.365308 108.760313m11.138282 0l3.535962 0q11.138282 0 11.138282 11.138281l0 102.262982q0 11.138282-11.138282 11.138282l-3.535962 0q-11.138282 0-11.138282-11.138282l0-102.262982q0-11.138282 11.138282-11.138281Z"
    fill="#60a5fa" p-id="9550"></path>
  <path
    d="M193.962275 48.280621m12.258003 0l94.100802 0q12.258003 0 12.258003 12.258003l0 3.889559q0 12.258003-12.258003 12.258003l-94.100802 0q-12.258003 0-12.258003-12.258003l0-3.889559q0-12.258003 12.258003-12.258003Z"
    fill="#60a5fa" p-id="9551"></path>
  <path
    d="M240.31285 0m11.138282 0l3.535962 0q11.138282 0 11.138282 11.138282l0 102.262981q0 11.138282-11.138282 11.138282l-3.535962 0q-11.138282 0-11.138282-11.138282l0-102.262981q0-11.138282 11.138282-11.138282Z"
    fill="#60a5fa" p-id="9552"></path>
</svg>