<svg width="66" height="66" viewBox="0 0 66 66" fill="none" xmlns="http://www.w3.org/2000/svg">
  <path
    d="M52.25 5.5H16.5C13.1835 5.5 8.25 7.69725 8.25 13.75V52.25C8.25 58.3027 13.1835 60.5 16.5 60.5H57.75V55H16.533C15.2625 54.967 13.75 54.4665 13.75 52.25C13.75 51.9723 13.7748 51.7247 13.816 51.4992C14.124 49.9152 15.422 49.5275 16.533 49.5H57.75V11C57.75 9.54131 57.1705 8.14236 56.1391 7.11091C55.1076 6.07946 53.7087 5.5 52.25 5.5ZM52.25 30.25L46.75 27.5L41.25 30.25V11H52.25V30.25Z"
    fill="#3b82f6" />
</svg>