<svg width="66" height="66" viewBox="0 0 66 66" fill="none" xmlns="http://www.w3.org/2000/svg">
  <path
    d="M55.1071 11H11.8929C10.33 11 8.8311 11.623 7.72598 12.732C6.62085 13.841 6 15.3451 6 16.9135V48.4519C6 50.0203 6.62085 51.5244 7.72598 52.6334C8.8311 53.7424 10.33 54.3654 11.8929 54.3654H55.1071C56.67 54.3654 58.1689 53.7424 59.274 52.6334C60.3791 51.5244 61 50.0203 61 48.4519V16.9135C61 15.3451 60.3791 13.841 59.274 12.732C58.1689 11.623 56.67 11 55.1071 11ZM33.5 42.5385C33.5 43.0612 33.293 43.5626 32.9247 43.9323C32.5563 44.3019 32.0567 44.5096 31.5357 44.5096H15.8214C15.3005 44.5096 14.8008 44.3019 14.4325 43.9323C14.0641 43.5626 13.8571 43.0612 13.8571 42.5385V38.1625C13.8615 36.4829 14.3161 34.8354 15.1732 33.3927C16.0303 31.95 17.2583 30.7652 18.7286 29.9625C18.1396 29.0715 17.8024 28.037 17.7528 26.969C17.7032 25.901 17.9431 24.8394 18.4469 23.8974C18.9508 22.9553 19.6997 22.1679 20.614 21.619C21.5283 21.0701 22.5738 20.7802 23.6393 20.7802C24.7047 20.7802 25.7502 21.0701 26.6646 21.619C27.5789 22.1679 28.3278 22.9553 28.8316 23.8974C29.3355 24.8394 29.5753 25.901 29.5258 26.969C29.4762 28.037 29.1389 29.0715 28.55 29.9625C30.0349 30.7548 31.2789 31.935 32.1502 33.3785C33.0216 34.8219 33.4879 36.4749 33.5 38.1625V42.5385ZM51.1786 44.5096H39.3929C38.8719 44.5096 38.3723 44.3019 38.0039 43.9323C37.6355 43.5626 37.4286 43.0612 37.4286 42.5385C37.4286 42.0157 37.6355 41.5143 38.0039 41.1446C38.3723 40.775 38.8719 40.5673 39.3929 40.5673H51.1786C51.6995 40.5673 52.1992 40.775 52.5675 41.1446C52.9359 41.5143 53.1429 42.0157 53.1429 42.5385C53.1429 43.0612 52.9359 43.5626 52.5675 43.9323C52.1992 44.3019 51.6995 44.5096 51.1786 44.5096ZM51.1786 36.625H39.3929C38.8719 36.625 38.3723 36.4173 38.0039 36.0477C37.6355 35.678 37.4286 35.1766 37.4286 34.6538C37.4286 34.1311 37.6355 33.6297 38.0039 33.26C38.3723 32.8904 38.8719 32.6827 39.3929 32.6827H51.1786C51.6995 32.6827 52.1992 32.8904 52.5675 33.26C52.9359 33.6297 53.1429 34.1311 53.1429 34.6538C53.1429 35.1766 52.9359 35.678 52.5675 36.0477C52.1992 36.4173 51.6995 36.625 51.1786 36.625ZM51.1786 28.7404H35.4643C34.9433 28.7404 34.4437 28.5327 34.0753 28.163C33.707 27.7934 33.5 27.292 33.5 26.7692C33.5 26.2464 33.707 25.7451 34.0753 25.3754C34.4437 25.0058 34.9433 24.7981 35.4643 24.7981H51.1786C51.6995 24.7981 52.1992 25.0058 52.5675 25.3754C52.9359 25.7451 53.1429 26.2464 53.1429 26.7692C53.1429 27.292 52.9359 27.7934 52.5675 28.163C52.1992 28.5327 51.6995 28.7404 51.1786 28.7404ZM21.7143 26.7692C21.7143 26.3794 21.8295 25.9983 22.0453 25.6741C22.2612 25.35 22.5679 25.0973 22.9269 24.9481C23.2858 24.7989 23.6808 24.7599 24.0618 24.8359C24.4428 24.912 24.7928 25.0997 25.0675 25.3754C25.3422 25.6511 25.5293 26.0023 25.6051 26.3847C25.6809 26.767 25.642 27.1634 25.4933 27.5236C25.3447 27.8837 25.0929 28.1916 24.7699 28.4082C24.4468 28.6248 24.0671 28.7404 23.6786 28.7404C23.1576 28.7404 22.658 28.5327 22.2896 28.163C21.9212 27.7934 21.7143 27.292 21.7143 26.7692ZM29.5714 38.1625V40.5673H17.7857V38.1625C17.7909 36.7108 18.3679 35.32 19.3908 34.2934C20.4138 33.2669 21.7998 32.6879 23.2464 32.6827H24.1107C25.5574 32.6879 26.9433 33.2669 27.9663 34.2934C28.9893 35.32 29.5663 36.7108 29.5714 38.1625Z"
    fill="#60a5fa" />
</svg>